<svg width="14" height="19" viewBox="0 0 14 19" fill="none" xmlns="http://www.w3.org/2000/svg">
<path fill-rule="evenodd" clip-rule="evenodd" d="M5.86117 5.68393C5.86117 4.9125 6.51629 4.61579 7.60133 4.61579C9.15723 4.61579 11.1226 5.07074 12.6785 5.88173V1.23338C10.9793 0.580629 9.30054 0.323486 7.60133 0.323486C3.44542 0.323486 0.681641 2.42019 0.681641 5.92129C0.681641 11.3806 8.46117 10.5103 8.46117 12.8641C8.46117 13.774 7.64227 14.0707 6.49581 14.0707C4.7966 14.0707 2.62652 13.3982 0.906837 12.4883V17.196C2.81077 17.9872 4.73518 18.3235 6.49581 18.3235C10.7541 18.3235 13.6816 16.2861 13.6816 12.7455C13.6612 6.85096 5.86117 7.89931 5.86117 5.68393Z" fill="#635BFF"/>
</svg>
